<?xml version="1.0" encoding="UTF-8"?><svg id="Livello_1" xmlns="http://www.w3.org/2000/svg" viewBox="0 0 402.96 105.59"><defs><style>.cls-1{fill:#e42313;}.cls-2{fill:#004e9b;}</style></defs><polygon class="cls-1" points="35.19 105.59 70.39 105.59 70.39 35.2 0 35.2 0 70.4 35.19 70.4 35.19 105.59"/><polygon class="cls-2" points="70.39 0 35.19 0 35.19 70.39 105.59 70.39 105.59 35.2 70.39 35.2 70.39 0"/><path class="cls-2" d="M145.48,25.48c-2.37-2.29-4.66-2.9-6.54-2.9-2.74,0-4.41,1.47-4.41,3.23,0,2.37,1.63,3.35,6.95,6.46,1.19.69,2.53,1.68,3.6,3.11.86,1.1,1.51,2.62,1.51,4.62,0,4.37-3.15,7.6-8.09,7.6-2.74,0-5.35-.94-7.52-2.57v-5.07c.82,1.02,3.31,4.09,7.52,4.09,2.08,0,4.33-1.31,4.33-3.68s-2.37-4.05-3.68-4.82c-4.41-2.66-5.68-3.43-6.91-4.99-.86-1.1-1.39-2.41-1.39-4.17,0-4.21,3.19-7.4,8.21-7.4,2.29,0,4.5.69,6.42,1.96v4.54Z"/><path class="cls-2" d="M175.15,47.22h-4.09l-3.72-8.21h-11.85l-3.51,8.21h-4.09l11.97-28.03h2.82l12.46,28.03ZM165.71,35.41l-4.5-10.09-4.17,10.09h8.66Z"/><path class="cls-2" d="M182.22,43.58h12.54v3.64h-16.59v-27.87h4.05v24.23Z"/><path class="cls-2" d="M221.61,35.16c0,2.7,0,6.58-3.15,9.4-2.49,2.21-5.6,3.02-8.79,3.02-3.92,0-8.25-1.35-10.46-4.86-1.55-2.45-1.55-5.68-1.55-7.56v-15.81h4v15.81c0,3.68.33,5.11,1.76,6.54,1.18,1.23,3.02,2.33,6.25,2.33,4.5,0,6.46-2.33,7.19-3.68.53-.98.78-2.45.78-5.19v-15.81h3.96v15.81Z"/><path class="cls-2" d="M248.09,22.86h-9.73v24.35h-4v-24.35h-9.56v-3.51h23.29v3.51Z"/><path class="cls-2" d="M267.67,22.9h-11.81v8.5h11.4v3.56h-11.4v8.66h12.18v3.6h-16.18v-27.87h15.81v3.56Z"/><path class="cls-2" d="M288.51,43.58h12.54v3.64h-16.59v-27.87h4.05v24.23Z"/><path class="cls-2" d="M328.72,47.22h-4.09l-3.72-8.21h-11.85l-3.51,8.21h-4.09l11.97-28.03h2.82l12.46,28.03ZM319.28,35.41l-4.5-10.09-4.17,10.09h8.66Z"/><path class="cls-2" d="M336.57,43.7h17.82v3.51h-25.17l17.86-24.35h-16.71v-3.51h24.03l-17.82,24.35Z"/><path class="cls-2" d="M362.24,47.22h-4v-27.87h4v27.87Z"/><path class="cls-2" d="M397.13,33.24c0,8.01-6.13,14.34-15.24,14.34s-14.71-6.46-14.71-14.22,5.39-14.38,14.92-14.38,15.04,6.78,15.04,14.26ZM371.31,33.36c0,6.33,4.99,10.5,10.83,10.5,2.98,0,6.21-1.23,8.13-3.31,1.76-1.92,2.78-4.94,2.78-7.36,0-4.62-3.51-10.46-10.79-10.46-7.8,0-10.95,5.97-10.95,10.62Z"/><path class="cls-2" d="M138.28,75.47c-1.05-1.02-2.07-1.29-2.9-1.29-1.22,0-1.96.65-1.96,1.43,0,1.05.73,1.49,3.08,2.87.53.31,1.12.74,1.6,1.38.38.49.67,1.16.67,2.05,0,1.94-1.4,3.37-3.59,3.37-1.22,0-2.38-.42-3.34-1.14v-2.25c.36.45,1.47,1.81,3.34,1.81.93,0,1.92-.58,1.92-1.63s-1.05-1.8-1.63-2.14c-1.96-1.18-2.52-1.52-3.07-2.21-.38-.49-.62-1.07-.62-1.85,0-1.87,1.42-3.28,3.65-3.28,1.02,0,2,.31,2.85.87v2.01Z"/><path class="cls-2" d="M147.73,74.33h-5.24v3.77h5.06v1.58h-5.06v3.85h5.41v1.6h-7.18v-12.37h7.02v1.58Z"/><path class="cls-2" d="M153.32,72.75c.58,0,1.34.05,2.12.4,1.32.56,1.94,1.8,1.94,3.05,0,1.43-.73,2.52-2.07,3.05,1.12.74,1.81,1.89,2.76,3.41.53.85.83,1.27,1.69,2.47h-2.1c-.42-.6-2.14-3.3-2.54-3.83-1.22-1.56-1.81-1.56-2.67-1.56h-.47v5.39h-1.76v-12.37h3.1ZM151.98,74.25v3.9h.69c.27,0,1.23,0,1.72-.18.83-.33,1.18-1.11,1.18-1.78,0-.71-.36-1.38-.94-1.65-.45-.22-1.03-.29-2.1-.29h-.54Z"/><path class="cls-2" d="M164.05,85.19h-.4l-5.33-12.45h1.78l3.72,8.69,3.7-8.69h1.76l-5.23,12.45Z"/><path class="cls-2" d="M172.43,85.12h-1.78v-12.37h1.78v12.37Z"/><path class="cls-2" d="M177.3,83.56h7.91v1.56h-11.18l7.93-10.81h-7.42v-1.56h10.67l-7.91,10.81Z"/><path class="cls-2" d="M188.7,85.12h-1.78v-12.37h1.78v12.37Z"/><path class="cls-2" d="M204.19,78.92c0,3.56-2.72,6.37-6.77,6.37s-6.53-2.87-6.53-6.31,2.4-6.39,6.62-6.39,6.68,3.01,6.68,6.33ZM192.73,78.97c0,2.81,2.21,4.66,4.81,4.66,1.32,0,2.76-.54,3.61-1.47.78-.85,1.23-2.2,1.23-3.27,0-2.05-1.56-4.64-4.79-4.64-3.47,0-4.86,2.65-4.86,4.72Z"/><path class="cls-2" d="M217.3,75.47c-1.05-1.02-2.07-1.29-2.9-1.29-1.22,0-1.96.65-1.96,1.43,0,1.05.73,1.49,3.08,2.87.53.31,1.12.74,1.6,1.38.38.49.67,1.16.67,2.05,0,1.94-1.4,3.37-3.59,3.37-1.22,0-2.38-.42-3.34-1.14v-2.25c.36.45,1.47,1.81,3.34,1.81.92,0,1.92-.58,1.92-1.63s-1.05-1.8-1.63-2.14c-1.96-1.18-2.52-1.52-3.07-2.21-.38-.49-.62-1.07-.62-1.85,0-1.87,1.42-3.28,3.65-3.28,1.02,0,2,.31,2.85.87v2.01Z"/><path class="cls-2" d="M230.47,85.12h-1.81l-1.65-3.65h-5.26l-1.56,3.65h-1.81l5.32-12.45h1.25l5.53,12.45ZM226.28,79.88l-2-4.48-1.85,4.48h3.85Z"/><path class="cls-2" d="M243.36,85.12h-1.52l-8.27-9.53v9.53h-1.67v-12.37h1.43l8.35,9.6v-9.6h1.69v12.37Z"/><path class="cls-2" d="M247.81,85.12h-1.78v-12.37h1.78v12.37Z"/><path class="cls-2" d="M259.84,74.31h-4.32v10.81h-1.78v-10.81h-4.25v-1.56h10.34v1.56Z"/><path class="cls-2" d="M270.44,85.12h-1.81l-1.65-3.65h-5.26l-1.56,3.65h-1.81l5.32-12.45h1.25l5.53,12.45ZM266.25,79.88l-2-4.48-1.85,4.48h3.85Z"/><path class="cls-2" d="M274.96,72.75c.58,0,1.34.05,2.12.4,1.32.56,1.94,1.8,1.94,3.05,0,1.43-.73,2.52-2.07,3.05,1.12.74,1.81,1.89,2.76,3.41.53.85.83,1.27,1.69,2.47h-2.1c-.42-.6-2.14-3.3-2.54-3.83-1.22-1.56-1.81-1.56-2.67-1.56h-.47v5.39h-1.76v-12.37h3.1ZM273.62,74.25v3.9h.69c.27,0,1.23,0,1.72-.18.83-.33,1.18-1.11,1.18-1.78,0-.71-.36-1.38-.94-1.65-.45-.22-1.03-.29-2.1-.29h-.54Z"/><path class="cls-2" d="M284.56,85.12h-1.78v-12.37h1.78v12.37Z"/><path class="cls-2" d="M300.05,78.92c0,3.56-2.72,6.37-6.77,6.37s-6.53-2.87-6.53-6.31,2.39-6.39,6.62-6.39,6.68,3.01,6.68,6.33ZM288.59,78.97c0,2.81,2.21,4.66,4.81,4.66,1.32,0,2.76-.54,3.61-1.47.78-.85,1.23-2.2,1.23-3.27,0-2.05-1.56-4.64-4.79-4.64-3.46,0-4.86,2.65-4.86,4.72Z"/><path class="cls-2" d="M310.44,72.75c.58,0,1.34.05,2.12.4,1.32.56,1.94,1.8,1.94,3.05,0,1.43-.73,2.52-2.07,3.05,1.12.74,1.81,1.89,2.76,3.41.53.85.83,1.27,1.69,2.47h-2.1c-.42-.6-2.14-3.3-2.54-3.83-1.22-1.56-1.81-1.56-2.67-1.56h-.47v5.39h-1.76v-12.37h3.1ZM309.1,74.25v3.9h.69c.27,0,1.23,0,1.72-.18.83-.33,1.18-1.11,1.18-1.78,0-.71-.36-1.38-.94-1.65-.45-.22-1.03-.29-2.1-.29h-.54Z"/><path class="cls-2" d="M325.27,74.33h-5.24v3.77h5.06v1.58h-5.06v3.85h5.41v1.6h-7.18v-12.37h7.02v1.58Z"/><path class="cls-2" d="M338.55,84.27c-.94.42-2.47,1.02-4.54,1.02-4.79,0-6.77-3.43-6.77-6.24,0-3.27,2.45-6.46,6.69-6.46,1.74,0,3.03.49,4.35,1.05v1.81c-2.03-1.18-3.7-1.29-4.39-1.29-2.47,0-4.81,1.85-4.81,4.77,0,2.74,1.98,4.79,4.97,4.79.91,0,1.52-.16,2.7-.54v-2.58h-2.38v-1.56h4.15v5.23Z"/><path class="cls-2" d="M342.93,85.12h-1.78v-12.37h1.78v12.37Z"/><path class="cls-2" d="M358.42,78.92c0,3.56-2.72,6.37-6.77,6.37s-6.53-2.87-6.53-6.31,2.39-6.39,6.62-6.39,6.68,3.01,6.68,6.33ZM346.96,78.97c0,2.81,2.21,4.66,4.81,4.66,1.32,0,2.76-.54,3.61-1.47.78-.85,1.23-2.2,1.23-3.27,0-2.05-1.56-4.64-4.79-4.64-3.46,0-4.86,2.65-4.86,4.72Z"/><path class="cls-2" d="M372.13,85.12h-1.52l-8.27-9.53v9.53h-1.67v-12.37h1.43l8.35,9.6v-9.6h1.69v12.37Z"/><path class="cls-2" d="M385.52,85.12h-1.81l-1.65-3.65h-5.26l-1.56,3.65h-1.81l5.32-12.45h1.25l5.53,12.45ZM381.33,79.88l-2-4.48-1.85,4.48h3.85Z"/><path class="cls-2" d="M388.66,83.51h5.57v1.61h-7.37v-12.37h1.8v10.76Z"/><path class="cls-2" d="M402.8,74.33h-5.24v3.77h5.06v1.58h-5.06v3.85h5.41v1.6h-7.18v-12.37h7.02v1.58Z"/></svg>